<?xml version="1.0" standalone="no"?>
<!DOCTYPE svg PUBLIC "-//W3C//DTD SVG 20010904//EN"
 "http://www.w3.org/TR/2001/REC-SVG-20010904/DTD/svg10.dtd">
<svg version="1.0" xmlns="http://www.w3.org/2000/svg"
 width="260.000000pt" height="260.000000pt" viewBox="0 0 260.000000 260.000000"
 preserveAspectRatio="xMidYMid meet">
<metadata>
Created by potrace 1.14, written by Peter Selinger 2001-2017
</metadata>
<g transform="translate(0.000000,260.000000) scale(0.100000,-0.100000)"
fill="#000000" stroke="none">
<path d="M2319 2566 c-2 -3 -27 -7 -54 -10 -146 -17 -243 -53 -365 -136 -55
-37 -170 -147 -170 -162 0 -3 -6 -13 -14 -20 -7 -8 -21 -28 -30 -45 l-16 -32
-42 14 c-94 31 -261 53 -383 50 -66 -1 -130 -5 -141 -8 -12 -3 -37 -8 -56 -11
-20 -3 -47 -10 -62 -16 -41 -15 -50 -13 -64 20 -25 55 -99 147 -144 177 -79
53 -149 73 -258 73 -124 1 -153 -12 -174 -77 -32 -99 -46 -192 -48 -323 -1
-86 17 -168 49 -217 13 -20 10 -28 -40 -105 -96 -145 -151 -295 -175 -473 -10
-74 -8 -222 3 -301 7 -48 6 -52 -15 -59 -12 -4 -19 -9 -17 -12 3 -2 15 0 26 7
18 9 21 8 21 -12 0 -13 3 -33 6 -44 5 -19 -5 -26 -75 -59 -45 -21 -79 -40 -77
-42 2 -2 30 9 62 25 92 46 104 48 104 18 0 -14 4 -35 9 -48 4 -13 17 -50 27
-83 20 -67 68 -170 84 -180 14 -9 13 -18 -8 -41 -14 -16 -66 -81 -94 -119 -4
-5 -18 -23 -31 -40 -45 -59 -147 -242 -147 -264 0 -8 386 -11 1295 -11 l1295
0 -34 68 c-52 104 -147 239 -225 322 -39 41 -70 78 -68 82 1 3 24 29 50 57 62
65 110 145 139 230 12 36 23 71 24 77 6 34 17 53 32 57 15 4 15 5 -1 6 -17 1
-17 11 0 74 15 57 22 244 12 338 -23 206 -87 372 -184 477 l-58 63 22 37 c12
20 41 75 64 122 40 82 42 89 42 180 0 155 -65 407 -96 376z"/>
<path d="M2548 993 c7 -3 16 -2 19 1 4 3 -2 6 -13 5 -11 0 -14 -3 -6 -6z"/>
<path d="M63 880 c-13 -5 -23 -11 -23 -14 0 -7 40 6 46 15 6 10 6 10 -23 -1z"/>
<path d="M2558 883 c6 -2 18 -2 25 0 6 3 1 5 -13 5 -14 0 -19 -2 -12 -5z"/>
<path d="M5 850 c-3 -6 1 -7 9 -4 18 7 21 14 7 14 -6 0 -13 -4 -16 -10z"/>
<path d="M2508 813 c6 -2 18 -2 25 0 6 3 1 5 -13 5 -14 0 -19 -2 -12 -5z"/>
<path d="M2558 803 c7 -3 16 -2 19 1 4 3 -2 6 -13 5 -11 0 -14 -3 -6 -6z"/>
<path d="M138 714 c-39 -21 -35 -28 5 -8 37 19 44 24 31 24 -5 -1 -21 -8 -36
-16z"/>
<path d="M47 659 c-26 -17 -47 -33 -47 -35 0 -3 6 -1 13 3 6 5 29 19 50 32 32
20 44 31 34 31 -2 0 -25 -14 -50 -31z"/>
</g>
</svg>
