<?xml version="1.0" standalone="no"?>
<!DOCTYPE svg PUBLIC "-//W3C//DTD SVG 20010904//EN"
 "http://www.w3.org/TR/2001/REC-SVG-20010904/DTD/svg10.dtd">
<svg version="1.0" xmlns="http://www.w3.org/2000/svg"
 width="260.000000pt" height="260.000000pt" viewBox="0 0 260.000000 260.000000"
 preserveAspectRatio="xMidYMid meet">
<metadata>
Created by potrace 1.14, written by Peter Selinger 2001-2017
</metadata>
<g transform="translate(0.000000,260.000000) scale(0.100000,-0.100000)"
fill="#000000" stroke="none">
<path d="M2057 1889 c-166 -33 -294 -118 -383 -254 -13 -20 -23 -25 -38 -21
-171 49 -353 53 -516 11 -21 -5 -28 -1 -43 28 -30 55 -100 123 -153 148 -41
20 -66 23 -151 24 -68 0 -106 -4 -114 -12 -7 -7 -21 -39 -31 -70 -23 -70 -35
-288 -17 -309 6 -8 8 -14 4 -14 -4 0 2 -15 13 -34 l20 -34 -29 -43 c-107 -158
-151 -295 -150 -469 0 -88 4 -145 11 -145 1 0 4 -18 6 -40 4 -30 1 -43 -13
-53 -17 -13 -16 -14 5 -7 16 5 22 2 23 -9 1 -9 2 -22 3 -28 1 -7 -3 -16 -9
-20 -6 -5 -3 -8 6 -8 10 0 19 -11 22 -29 8 -36 47 -121 64 -139 16 -17 16 -27
0 -44 -68 -70 -206 -277 -207 -310 0 -5 448 -8 996 -8 945 0 996 1 990 18 -20
52 -110 184 -173 251 l-72 78 50 53 c48 52 92 128 105 182 3 16 10 25 15 22 5
-3 6 2 3 10 -3 9 -3 24 1 34 4 9 9 28 10 42 2 14 7 45 12 70 10 50 9 180 -1
250 -22 147 -74 263 -148 329 -35 31 -37 35 -23 51 8 9 15 19 15 23 0 3 13 29
30 57 16 27 27 50 24 50 -4 0 -1 7 6 16 30 36 5 274 -37 349 -14 25 -23 25
-126 4z"/>
<path d="M440 660 c-8 -5 -10 -10 -5 -10 6 0 17 5 25 10 8 5 11 10 5 10 -5 0
-17 -5 -25 -10z"/>
<path d="M344 614 c-18 -14 -18 -15 4 -4 12 6 22 13 22 15 0 8 -5 6 -26 -11z"/>
<path d="M2348 593 c7 -3 16 -2 19 1 4 3 -2 6 -13 5 -11 0 -14 -3 -6 -6z"/>
<path d="M410 570 c-9 -6 -10 -10 -3 -10 6 0 15 5 18 10 8 12 4 12 -15 0z"/>
<path d="M405 490 c-3 -6 1 -7 9 -4 18 7 21 14 7 14 -6 0 -13 -4 -16 -10z"/>
<path d="M331 430 c-57 -52 -46 -52 14 0 25 22 43 40 38 40 -4 -1 -28 -19 -52
-40z"/>
</g>
</svg>
